<?xml version="1.0" encoding="UTF-8"?>
<svg version="1.1" xmlns="http://www.w3.org/2000/svg" width="500" height="500">
<path d="M0 0 C165 0 330 0 500 0 C500 165 500 330 500 500 C335 500 170 500 0 500 C0 335 0 170 0 0 Z " fill="#010101" transform="translate(0,0)"/>
<path d="M0 0 C165 0 330 0 500 0 C500 165 500 330 500 500 C335 500 170 500 0 500 C0 335 0 170 0 0 Z M23 23 C23 172.82 23 322.64 23 477 C172.82 477 322.64 477 477 477 C477 327.18 477 177.36 477 23 C327.18 23 177.36 23 23 23 Z " fill="#020202" transform="translate(0,0)"/>
<path d="M0 0 C0.6986618 0.00182281 1.39732361 0.00364563 2.11715698 0.00552368 C31.27240746 0.13325707 57.17584791 7.751359 78.5 28.3125 C90.29728072 40.55807739 96.88898256 55.06855521 101.25 71.3125 C101.43981445 71.99715332 101.62962891 72.68180664 101.82519531 73.38720703 C102.85793303 77.24957373 103.25 80.2549568 103.25 84.3125 C94.67 84.3125 86.09 84.3125 77.25 84.3125 C76.569375 81.775625 75.88875 79.23875 75.1875 76.625 C69.78699719 57.74136267 59.28924354 43.42091556 42.15234375 33.5234375 C28.45768993 26.63368601 14.92418273 26.04557359 -0.0625 26 C-0.75372955 25.99623352 -1.44495911 25.99246704 -2.15713501 25.98858643 C-22.71880189 25.9318999 -42.10572295 30.32321055 -57.45703125 44.8203125 C-66.58880449 54.7454766 -71.13133125 66.17775546 -70.890625 79.6171875 C-70.27073902 91.49833549 -66.1174005 103.40655422 -57.09765625 111.625 C-47.88497556 118.24709327 -37.16835391 124.15374363 -26.0859375 126.72265625 C-23.26814771 127.43417173 -20.52013802 128.30857966 -17.75 129.1875 C-4.15171576 133.51006358 -4.15171576 133.51006358 9.875 135.8125 C14.93413021 136.22373365 19.62265743 137.76906419 24.46875 139.21875 C28.22989409 140.30668424 32.00206884 141.22660566 35.8125 142.125 C58.64445396 147.67978707 82.46319125 155.95175504 98.25 174.3125 C98.745 174.84359375 99.24 175.3746875 99.75 175.921875 C103.54642316 180.39058143 105.7643858 185.38569029 108 190.75 C108.29390625 191.45366699 108.5878125 192.15733398 108.890625 192.88232422 C112.88745224 202.89520912 113.56593111 211.98674688 113.5 222.75 C113.50773438 224.00876953 113.51546875 225.26753906 113.5234375 226.56445312 C113.47546088 249.55724762 105.24519931 269.98130803 89.3125 286.625 C77.76921292 297.60132799 63.51012888 304.26638583 48.25 308.3125 C47.61271973 308.48910156 46.97543945 308.66570312 46.31884766 308.84765625 C11.12517051 318.58914347 -30.69773855 315.24749759 -62.75 297.125 C-71.08918167 292.18863721 -78.06235867 286.29134494 -84.75 279.3125 C-85.38164063 278.65378906 -86.01328125 277.99507813 -86.6640625 277.31640625 C-88.11966575 275.70031341 -89.45061499 274.0558755 -90.75 272.3125 C-91.44416016 271.39210938 -91.44416016 271.39210938 -92.15234375 270.453125 C-101.58546296 257.14166765 -110.75 238.90630507 -110.75 222.3125 C-101.51 222.3125 -92.27 222.3125 -82.75 222.3125 C-82.21375 224.33375 -81.6775 226.355 -81.125 228.4375 C-77.00714909 243.06607027 -71.00934647 254.89760452 -59.75 265.3125 C-58.99783203 266.08980469 -58.99783203 266.08980469 -58.23046875 266.8828125 C-48.43407966 276.40174394 -34.81403506 281.30442964 -21.75 284.3125 C-20.60144531 284.61027344 -19.45289063 284.90804688 -18.26953125 285.21484375 C-0.02259556 289.38721998 22.5293617 289.66497562 40.5625 284.25 C41.28107178 284.03520996 41.99964355 283.82041992 42.73999023 283.59912109 C55.97457046 279.3856629 70.52522102 271.02443432 77.27319336 258.39794922 C78.22341132 256.30611689 79.09712464 254.20079107 79.9375 252.0625 C80.23857666 251.30525635 80.53965332 250.5480127 80.84985352 249.76782227 C86.36870655 235.54493218 87.85583845 218.78164376 82.0625 204.35546875 C74.0068665 186.95267354 60.27213565 178.82366595 42.96728516 172.29003906 C27.22062544 166.62520299 10.99163512 163.03337555 -5.3671875 159.6484375 C-12.89427747 158.08936453 -20.32039077 156.28330161 -27.75 154.3125 C-29.21608617 153.94247187 -30.68223498 153.57269185 -32.1484375 153.203125 C-46.2843375 149.55699616 -59.53299188 144.44978127 -71.75 136.3125 C-72.40871094 135.91160156 -73.06742188 135.51070312 -73.74609375 135.09765625 C-84.30202921 128.10992433 -92.03575963 116.20747231 -95.75 104.3125 C-96.06582031 103.34441406 -96.38164063 102.37632812 -96.70703125 101.37890625 C-102.06401437 82.17693479 -99.56961653 60.38963599 -89.99609375 43.015625 C-86.82944341 37.61246712 -82.97960116 32.91530127 -78.75 28.3125 C-78.234375 27.69375 -77.71875 27.075 -77.1875 26.4375 C-58.59235175 5.51795822 -26.40355561 -0.14377374 0 0 Z " fill="#E6A903" transform="translate(183.75,90.6875)"/>
<path d="M0 0 C149.82 0 299.64 0 454 0 C454 149.82 454 299.64 454 454 C304.18 454 154.36 454 0 454 C0 304.18 0 154.36 0 0 Z M4 4 C4 151.18 4 298.36 4 450 C151.18 450 298.36 450 450 450 C450 302.82 450 155.64 450 4 C302.82 4 155.64 4 4 4 Z " fill="#E1E1E1" transform="translate(23,23)"/>
<path d="M0 0 C0.83383209 -0.00570007 1.66766418 -0.01140015 2.52676392 -0.01727295 C4.2865474 -0.02666896 6.04634804 -0.03323529 7.80615234 -0.03710938 C10.43490385 -0.04672266 13.06284063 -0.0777591 15.69140625 -0.109375 C35.87868133 -0.23647483 55.9251584 2.98077975 74.1015625 12.203125 C74.92398438 12.60917969 75.74640625 13.01523438 76.59375 13.43359375 C102.76132366 26.97246882 120.21402789 48.42465539 129.69140625 76.17578125 C130.1015625 78.203125 130.1015625 78.203125 130.1015625 84.203125 C120.5315625 84.203125 110.9615625 84.203125 101.1015625 84.203125 C100.1115625 81.233125 99.1215625 78.263125 98.1015625 75.203125 C89.27185595 54.66008623 75.11946994 41.94627288 54.9765625 32.78125 C52.37061516 31.79644432 49.78274934 30.95771052 47.1015625 30.203125 C46.11671875 29.91953125 45.131875 29.6359375 44.1171875 29.34375 C32.68926139 26.26923181 21.32026797 25.93701579 9.5390625 25.890625 C8.83179016 25.88700958 8.12451782 25.88339417 7.39581299 25.87966919 C-3.58930512 25.85711344 -13.35995324 26.97943633 -23.8984375 30.203125 C-25.89277244 30.56882879 -27.89165747 30.91339232 -29.8984375 31.203125 C-30.56939453 30.31560547 -30.56939453 30.31560547 -31.25390625 29.41015625 C-35.25278645 24.1408699 -35.25278645 24.1408699 -39.7734375 19.328125 C-41.8984375 17.203125 -41.8984375 17.203125 -42.8984375 14.203125 C-43.8884375 13.873125 -44.8784375 13.543125 -45.8984375 13.203125 C-45.8984375 12.213125 -45.8984375 11.223125 -45.8984375 10.203125 C-39.54616651 7.28010056 -33.01507367 5.30157983 -26.2734375 3.515625 C-25.47446045 3.30139893 -24.6754834 3.08717285 -23.85229492 2.86645508 C-23.07088135 2.66431396 -22.28946777 2.46217285 -21.484375 2.25390625 C-20.7939209 2.07512939 -20.1034668 1.89635254 -19.39208984 1.7121582 C-12.92732787 0.3924961 -6.57521358 0.0359548 0 0 Z " fill="#FAFAFA" transform="translate(312.8984375,90.796875)"/>
<path d="M0 0 C9.57 0 19.14 0 29 0 C28.21693239 7.04760847 27.29935035 12.11285411 25 18.5625 C24.69239746 19.4272998 24.38479492 20.29209961 24.06787109 21.18310547 C19.6895396 33.02920276 14.00988881 43.68985481 5.140625 52.7890625 C2.87925812 55.0581791 2.87925812 55.0581791 0.6015625 57.97265625 C-17.28709027 78.78903147 -45.83504679 87.21933891 -72 91 C-77.41311064 91.24803201 -82.83173755 91.24574795 -88.25 91.25 C-89.01632751 91.25067474 -89.78265503 91.25134949 -90.57220459 91.25204468 C-108.10398164 91.22747107 -123.41567435 88.71639562 -140 83 C-137.41165127 80.40694518 -134.81804318 77.82033675 -132.2109375 75.24609375 C-131.27507812 74.31925781 -130.33921875 73.39242187 -129.375 72.4375 C-128.89804687 71.96892578 -128.42109375 71.50035156 -127.9296875 71.01757812 C-125.88138948 68.98350439 -124.05591354 67.08742845 -122.49609375 64.6484375 C-121 63 -121 63 -118.51171875 62.79296875 C-117.11373047 62.98826172 -117.11373047 62.98826172 -115.6875 63.1875 C-114.76324219 63.30480469 -113.83898437 63.42210937 -112.88671875 63.54296875 C-110.99679728 63.842185 -109.11041203 64.16490688 -107.22900391 64.51367188 C-90.91824332 66.97027516 -72.66411548 66.17051431 -57 61 C-55.18242187 60.45666016 -55.18242187 60.45666016 -53.328125 59.90234375 C-44.64151591 57.10480043 -37.52996602 53.05450264 -30 48 C-29.30003906 47.5565625 -28.60007812 47.113125 -27.87890625 46.65625 C-12.05479191 36.22431716 -4.75246069 17.42568921 0 0 Z " fill="#F9F9F9" transform="translate(414,313)"/>
<path d="M0 0 C0.99 0.495 0.99 0.495 2 1 C2 146.86 2 292.72 2 443 C149.84 443 297.68 443 450 443 C450 297.47 450 151.94 450 2 C450.66 1.67 451.32 1.34 452 1 C452 147.85 452 294.7 452 446 C302.84 446 153.68 446 0 446 C0 298.82 0 151.64 0 0 Z " fill="#F7F7F7" transform="translate(24,30)"/>
<path d="M0 0 C6.81569099 0.3297915 13.01730315 1.67125208 19.5625 3.5 C20.37251465 3.72582764 21.1825293 3.95165527 22.01708984 4.18432617 C27.8600304 5.8600304 27.8600304 5.8600304 29 7 C29.29615629 8.85577073 29.58668489 10.71261318 29.84887695 12.57348633 C32.05231619 27.95625644 36.98959164 42.15204266 44 56 C44.39832031 56.79535156 44.79664063 57.59070313 45.20703125 58.41015625 C48.0969361 63.8903437 51.67477554 68.67021718 55.5234375 73.51953125 C57 76 57 76 57.08203125 78.03515625 C55.42240574 81.04884444 53.06753624 82.59854038 50.3125 84.625 C49.27738281 85.40101563 48.24226563 86.17703125 47.17578125 86.9765625 C43.26274028 89.46974235 40.08276085 91.00938181 35.3984375 90.98828125 C31.88562807 89.54082069 30.69515323 87.33757071 28.625 84.1875 C28.23707275 83.59783447 27.84914551 83.00816895 27.44946289 82.40063477 C26.28288179 80.6105982 25.14094135 78.80644823 24 77 C23.38769531 76.06671875 22.77539062 75.1334375 22.14453125 74.171875 C16.44235596 65.03795577 12.76116865 55.04356025 9 45 C8.58621094 43.91589844 8.17242187 42.83179688 7.74609375 41.71484375 C2.95008924 28.34245471 0.46237256 14.17171911 0 0 Z " fill="#F9F9F9" transform="translate(188,268)"/>
<path d="M0 0 C4.79358302 2.53777925 8.31719719 4.93947382 12 9 C12.52980469 9.57234375 13.05960938 10.1446875 13.60546875 10.734375 C18.89282261 16.61200352 18.89282261 16.61200352 19 20 C17.71374083 22.46582403 16.39575556 24.68793554 14.875 27 C6.38898498 40.52453523 1.64275569 55.10849317 -1.04931641 70.79589844 C-1.91247429 75.82494859 -1.91247429 75.82494859 -3 78 C-8.72233252 78.23747297 -13.75281982 77.37199272 -19.3125 76.0625 C-20.12267578 75.88009766 -20.93285156 75.69769531 -21.76757812 75.50976562 C-27.69489247 74.15255376 -27.69489247 74.15255376 -30 73 C-29.88905896 49.3140881 -16.93955657 16.93955657 0 0 Z " fill="#F8F8F8" transform="translate(220,138)"/>
<path d="M0 0 C0 0.33 0 0.66 0 1 C-0.56509277 1.11593506 -1.13018555 1.23187012 -1.71240234 1.35131836 C-4.26720691 1.87715296 -6.8211036 2.40727295 -9.375 2.9375 C-10.70917969 3.21110352 -10.70917969 3.21110352 -12.0703125 3.49023438 C-12.92109375 3.66748047 -13.771875 3.84472656 -14.6484375 4.02734375 C-15.43395996 4.18968506 -16.21948242 4.35202637 -17.02880859 4.51928711 C-19.05960746 4.93706722 -19.05960746 4.93706722 -21 6 C-40.49298447 8.55872075 -60.77150234 7.97830986 -80 4 C-80 3.67 -80 3.34 -80 3 C-76.18751574 2.97112764 -72.3750593 2.95324508 -68.5625 2.9375 C-67.47388672 2.92912109 -66.38527344 2.92074219 -65.26367188 2.91210938 C-64.22919922 2.90888672 -63.19472656 2.90566406 -62.12890625 2.90234375 C-61.17056885 2.89710693 -60.21223145 2.89187012 -59.22485352 2.88647461 C-57 3 -57 3 -56 4 C-54.09455748 4.10001828 -52.18540844 4.13081048 -50.27734375 4.1328125 C-48.50907227 4.13474609 -48.50907227 4.13474609 -46.70507812 4.13671875 C-44.84012695 4.13091797 -44.84012695 4.13091797 -42.9375 4.125 C-41.1131543 4.13080078 -41.1131543 4.13080078 -39.25195312 4.13671875 C-29.08334928 4.88924678 -29.08334928 4.88924678 -20 2 C-18.35892758 1.79160985 -16.71143707 1.63248275 -15.0625 1.5 C-9.72463592 1.06989872 -5.48409088 -0.08845308 0 0 Z " fill="#BB9014" transform="translate(237,397)"/>
<path d="M0 0 C9.24 0 18.48 0 28 0 C28.598125 2.124375 29.19625 4.24875 29.8125 6.4375 C31.39414477 12.01323662 33.11059211 17.52071712 35 23 C34.34 23 33.68 23 33 23 C30 16.375 30 16.375 30 13 C29.34 13 28.68 13 28 13 C27.51171875 11.01432292 27.0234375 9.02864583 26.53515625 7.04296875 C26.08989295 5.34316798 25.55566015 3.66698046 25 2 C17.41 2 9.82 2 2 2 C2.66 4.97 3.32 7.94 4 11 C3.67 12.32 3.34 13.64 3 15 C2.491217 13.44033782 1.99336531 11.87710759 1.5 10.3125 C1.2215625 9.44238281 0.943125 8.57226562 0.65625 7.67578125 C0 5 0 5 0 0 Z " fill="#B48E1F" transform="translate(73,313)"/>
<path d="M0 0 C0 0.66 0 1.32 0 2 C-5.75 5 -5.75 5 -8 5 C-8.33 5.99 -8.66 6.98 -9 8 C-13.59216764 10.81455436 -18.80987459 10.18140244 -24 10 C-24 10.66 -24 11.32 -24 12 C-28.44147569 12.85916096 -32.62769824 13.11697565 -37.1484375 13.09765625 C-38.13452499 13.09553383 -38.13452499 13.09553383 -39.14053345 13.09336853 C-41.21873731 13.08781762 -43.29682927 13.07527465 -45.375 13.0625 C-46.79296718 13.05747864 -48.21093607 13.05291685 -49.62890625 13.04882812 C-53.08597322 13.03786437 -56.54297567 13.02063421 -60 13 C-60 12.67 -60 12.34 -60 12 C-59.11965088 11.96559814 -58.23930176 11.93119629 -57.33227539 11.89575195 C-29.27877463 11.1799777 -29.27877463 11.1799777 -3.56640625 0.91796875 C-2 0 -2 0 0 0 Z " fill="#CE9F1C" transform="translate(244,367)"/>
<path d="M0 0 C14.28860907 1.97308562 30.60907419 10.18326567 39.984375 21.3671875 C40.31953125 21.90601563 40.6546875 22.44484375 41 23 C40.01 23 39.02 23 38 23 C37.773125 22.360625 37.54625 21.72125 37.3125 21.0625 C36.879375 20.381875 36.44625 19.70125 36 19 C34.33678518 18.64984951 32.66965451 18.31802943 31 18 C30.38125 17.360625 29.7625 16.72125 29.125 16.0625 C26.35035399 13.36946122 23.71430176 12.85714656 20 12 C20 11.01 20 10.02 20 9 C16.37 8.01 12.74 7.02 9 6 C9 5.34 9 4.68 9 4 C6.03 3.01 3.06 2.02 0 1 C0 0.67 0 0.34 0 0 Z " fill="#CC9F1A" transform="translate(237,239)"/>
<path d="M0 0 C0.99 0 1.98 0 3 0 C3 0.66 3 1.32 3 2 C6.96 2 10.92 2 15 2 C14.67 2.66 14.34 3.32 14 4 C13.01 4 12.02 4 11 4 C11 4.99 11 5.98 11 7 C13.97 7.495 13.97 7.495 17 8 C15.484375 9.171875 15.484375 9.171875 13 10 C10.27320316 9.20911087 7.84637875 8.35032408 5.25 7.25 C-0.12546716 5.04258383 -5.32707383 3.29739567 -11 2 C-7.58028525 1.05049135 -4.54667612 1 -1 1 C-0.67 0.67 -0.34 0.34 0 0 Z " fill="#E8A70B" transform="translate(221,256)"/>
<path d="M0 0 C0.99 0.33 1.98 0.66 3 1 C2.38511719 2.14275391 2.38511719 2.14275391 1.7578125 3.30859375 C-6.08010566 18.32814506 -6.20247121 30.72015657 -2 47 C-2.66 47 -3.32 47 -4 47 C-7.03485136 42.44772296 -7.125242 38.42219022 -7.09765625 33.04296875 C-7.09443359 31.93115234 -7.09121094 30.81933594 -7.08789062 29.67382812 C-7.07951172 28.52333984 -7.07113281 27.37285156 -7.0625 26.1875 C-7.05798828 25.01767578 -7.05347656 23.84785156 -7.04882812 22.64257812 C-7.0370693 19.76166642 -7.02063426 16.88085956 -7 14 C-6.34 14 -5.68 14 -5 14 C-4.9175 13.175 -4.835 12.35 -4.75 11.5 C-3.83552731 7.23246079 -2.07776822 3.80763106 0 0 Z " fill="#D7A61B" transform="translate(118,141)"/>
<path d="M0 0 C1.48019816 1.9590858 2.94521988 3.92223741 4.359375 5.9296875 C11.47313905 15.88096418 20.29185909 20.57013189 31 26 C28 27 28 27 24.64453125 25.56640625 C23.3619696 24.90851193 22.08475943 24.24010257 20.8125 23.5625 C20.15830078 23.22412109 19.50410156 22.88574219 18.83007812 22.53710938 C17.21540701 21.70030902 15.60707237 20.85130254 14 20 C14 19.34 14 18.68 14 18 C13.236875 17.9175 12.47375 17.835 11.6875 17.75 C8.45284809 16.84730645 7.64900735 15.86406539 6 13 C6 12.34 6 11.68 6 11 C5.0409375 11.2784375 5.0409375 11.2784375 4.0625 11.5625 C3.381875 11.706875 2.70125 11.85125 2 12 C0.26043342 10.26043342 0.62809614 7.8063378 0.4375 5.4375 C0.35371094 4.42558594 0.26992187 3.41367188 0.18359375 2.37109375 C0.12300781 1.58863281 0.06242187 0.80617187 0 0 Z " fill="#CB9F19" transform="translate(116,188)"/>
<path d="M0 0 C2.758104 2.758104 3.40802826 5.97847619 4.5 9.625 C4.81904297 10.65560547 4.81904297 10.65560547 5.14453125 11.70703125 C9 24.31417753 9 24.31417753 9 31 C0.42 31 -8.16 31 -17 31 C-17 30.67 -17 30.34 -17 30 C-9.41 29.67 -1.82 29.34 6 29 C5.566875 26.36 5.13375 23.72 4.6875 21 C4.55819092 20.1853125 4.42888184 19.370625 4.2956543 18.53125 C3.64891095 14.7392101 2.80833771 11.2714703 1.39453125 7.6875 C0 4 0 4 0 0 Z " fill="#C59A22" transform="translate(278,144)"/>
<path d="M0 0 C0.33 0 0.66 0 1 0 C1.05003872 3.94690003 1.08601633 7.89367309 1.10986328 11.84082031 C1.12467591 13.83144637 1.15010992 15.82198437 1.17578125 17.8125 C1.265625 35.6015625 1.265625 35.6015625 -3 42 C-5.24828052 37.50343896 -5.16682272 33.92127034 -5 29 C-4.34 29 -3.68 29 -3 29 C-1.00862881 25.66008621 -0.70412331 23.00136135 -0.5859375 19.140625 C-0.52792969 17.46806641 -0.52792969 17.46806641 -0.46875 15.76171875 C-0.4378125 14.60285156 -0.406875 13.44398438 -0.375 12.25 C-0.33632813 11.07566406 -0.29765625 9.90132813 -0.2578125 8.69140625 C-0.1636018 5.79442732 -0.07798398 2.89745374 0 0 Z " fill="#CD9E15" transform="translate(296,299)"/>
<path d="M0 0 C0.33 0 0.66 0 1 0 C1.19294408 4.82360189 0.75747614 8.49646738 -1 13 C-1.66 13 -2.32 13 -3 13 C-3.33 14.98 -3.66 16.96 -4 19 C-3.01 19.33 -2.02 19.66 -1 20 C-4.33333333 23.33333333 -7.66666667 26.66666667 -11 30 C-11.66 29.67 -12.32 29.34 -13 29 C-12.40316406 28.32453125 -11.80632812 27.6490625 -11.19140625 26.953125 C-8.79613165 23.72526833 -7.34338225 20.47563505 -5.9375 16.75 C-5.68145996 16.0912085 -5.42541992 15.43241699 -5.16162109 14.75366211 C-3.28638661 9.88414011 -1.57149329 4.97639541 0 0 Z " fill="#301D01" transform="translate(295,336)"/>
<path d="M0 0 C6.20215777 9.30323665 5.10148051 24.43255513 3 35 C2.68325425 36.33737094 2.35729936 37.67288808 2 39 C1.67 39 1.34 39 1 39 C0.80252781 37.60554251 0.61751413 36.20931848 0.4375 34.8125 C0.33308594 34.03519531 0.22867187 33.25789063 0.12109375 32.45703125 C0 30 0 30 0.46484375 27.75390625 C1.21956543 23.87011952 1.14444082 20.07148682 1.125 16.125 C1.12886719 15.34769531 1.13273437 14.57039063 1.13671875 13.76953125 C1.12883117 9.07641994 0.77762682 4.62873105 0 0 Z " fill="#3E2803" transform="translate(266,295)"/>
<path d="M0 0 C1.32341307 4.03325887 0.51033679 6.26833092 -1.03125 10.09375 C-2.28430484 12.55943856 -3.87897532 14.24466923 -6 16 C-6.99 15.67 -7.98 15.34 -9 15 C-9 14.34 -9 13.68 -9 13 C-9.66 12.67 -10.32 12.34 -11 12 C-10.45730469 11.46890625 -9.91460937 10.9378125 -9.35546875 10.390625 C-8.64003906 9.68421875 -7.92460937 8.9778125 -7.1875 8.25 C-6.47980469 7.55390625 -5.77210938 6.8578125 -5.04296875 6.140625 C-3.17724121 4.18571355 -1.56830358 2.19661447 0 0 Z " fill="#0E0902" transform="translate(281,367)"/>
<path d="M0 0 C2.62184619 2.5469363 4.9921178 4.9899283 7.25 7.875 C10.549869 11.94943632 14.80309671 14.90946991 19 18 C16 19 16 19 14.0625 18.375 C12 17 12 17 10.0625 14.375 C9.0415625 13.199375 9.0415625 13.199375 8 12 C5.41645782 11.83312552 5.41645782 11.83312552 3 12 C1 9 1 9 1.375 6.8125 C1.58125 6.214375 1.7875 5.61625 2 5 C1.34 4.67 0.68 4.34 0 4 C0 2.68 0 1.36 0 0 Z " fill="#D5A50C" transform="translate(112,344)"/>
<path d="M0 0 C0.66 0 1.32 0 2 0 C2.185625 0.9590625 2.185625 0.9590625 2.375 1.9375 C2.684375 2.9584375 2.684375 2.9584375 3 4 C3.66 4.33 4.32 4.66 5 5 C5.59355614 7.64860427 5.74209269 10.29197322 6 13 C9.465 12.505 9.465 12.505 13 12 C13 12.66 13 13.32 13 14 C16.96 14 20.92 14 25 14 C25 14.33 25 14.66 25 15 C18.07 15 11.14 15 4 15 C0 3.375 0 3.375 0 0 Z " fill="#D6A913" transform="translate(257,159)"/>
<path d="M0 0 C2 0 4 0 6 0 C5.94714844 0.85207031 5.89429687 1.70414062 5.83984375 2.58203125 C6.02193798 6.46818869 7.04179824 9.11985909 8.5625 12.6875 C11.10942249 18.67173252 11.10942249 18.67173252 10 22 C8.70326398 19.46080994 7.41252163 16.91885762 6.125 14.375 C5.76019531 13.66214844 5.39539063 12.94929688 5.01953125 12.21484375 C2.99999073 8.21248163 1.2918889 4.31082927 0 0 Z " fill="#D7A617" transform="translate(79,336)"/>
<path d="M0 0 C0 3.89503418 -0.82280073 6.77571276 -3.5625 9.625 C-4.036875 10.07875 -4.51125 10.5325 -5 11 C-5.33 11.99 -5.66 12.98 -6 14 C-6.66 14 -7.32 14 -8 14 C-8.20302734 15.05960938 -8.20302734 15.05960938 -8.41015625 16.140625 C-9.00750868 19.03639971 -9.69132858 21.88903184 -10.4375 24.75 C-10.68371094 25.71421875 -10.92992188 26.6784375 -11.18359375 27.671875 C-12 30 -12 30 -14 31 C-14 24.42192677 -12.14508003 19.60266006 -9.25 13.8125 C-8.91484375 13.13574219 -8.5796875 12.45898438 -8.234375 11.76171875 C-5.94420589 7.33752843 -3.31090591 3.721875 0 0 Z " fill="#C49B1C" transform="translate(101,124)"/>
<path d="M0 0 C7.03128878 0.43384548 13.329015 1.74321997 20 4 C19.67 4.66 19.34 5.32 19 6 C18.34 6 17.68 6 17 6 C16.67 6.66 16.34 7.32 16 8 C14.68428397 7.7452486 13.37239624 7.47065859 12.0625 7.1875 C11.33160156 7.03667969 10.60070312 6.88585937 9.84765625 6.73046875 C9.23792969 6.48941406 8.62820312 6.24835938 8 6 C7.67 5.01 7.34 4.02 7 3 C3.48809191 1.77030122 3.48809191 1.77030122 0 1 C0 0.67 0 0.34 0 0 Z " fill="#DBA410" transform="translate(208,231)"/>
<path d="M0 0 C0 0.66 0 1.32 0 2 C-4.29825606 5.61958405 -8.09811509 6.63404666 -13.5859375 7.5625 C-16.50272019 8.09110787 -19.22170596 8.97641798 -22 10 C-18.77489455 6.29112873 -15.50635423 4.64037741 -11 2.75 C-10.38382813 2.481875 -9.76765625 2.21375 -9.1328125 1.9375 C-5.80136194 0.53628904 -3.68106182 0 0 0 Z " fill="#C69B12" transform="translate(144,97)"/>
<path d="M0 0 C0.33 0 0.66 0 1 0 C1.40652968 5.42039575 0.03993514 9.07015675 -2 14 C-2.66 14 -3.32 14 -4 14 C-4.66 16.31 -5.32 18.62 -6 21 C-7.32 21.33 -8.64 21.66 -10 22 C-10 22.66 -10 23.32 -10 24 C-10.66 23.67 -11.32 23.34 -12 23 C-10.88044922 21.78957031 -10.88044922 21.78957031 -9.73828125 20.5546875 C-6.59127891 16.77828469 -4.93567597 12.67874755 -3.1875 8.125 C-2.72053711 6.949375 -2.72053711 6.949375 -2.24414062 5.75 C-1.48605158 3.83728302 -0.74159544 1.91917207 0 0 Z " fill="#BA8E15" transform="translate(267,334)"/>
<path d="M0 0 C0.99 0.33 1.98 0.66 3 1 C2.52949219 1.825 2.05898437 2.65 1.57421875 3.5 C-3.303848 12.54916731 -5.61464544 20.84073321 -7 31 C-7.33 31 -7.66 31 -8 31 C-8.46732561 23.02084798 -7.62277997 15.24555993 -4 8 C-3.34 8 -2.68 8 -2 8 C-1.7834375 6.576875 -1.7834375 6.576875 -1.5625 5.125 C-1 2 -1 2 0 0 Z " fill="#2F1C00" transform="translate(93,131)"/>
<path d="M0 0 C0 0.66 0 1.32 0 2 C-0.66 2 -1.32 2 -2 2 C-2.33 2.99 -2.66 3.98 -3 5 C-8.25714286 9 -8.25714286 9 -12 9 C-12.2475 9.598125 -12.495 10.19625 -12.75 10.8125 C-14.16370012 13.28647521 -15.65055383 14.43370255 -18 16 C-18.66 15.67 -19.32 15.34 -20 15 C-5.78640777 0 -5.78640777 0 0 0 Z " fill="#BF8F1A" transform="translate(122,107)"/>
<path d="M0 0 C2.60797351 1.26347163 5.21123407 2.53535224 7.8125 3.8125 C8.55048828 4.16892578 9.28847656 4.52535156 10.04882812 4.89257812 C10.76103516 5.24384766 11.47324219 5.59511719 12.20703125 5.95703125 C12.8616333 6.27647705 13.51623535 6.59592285 14.19067383 6.92504883 C16.11617064 8.06901894 17.48835511 9.35744135 19 11 C17.63875 10.9690625 17.63875 10.9690625 16.25 10.9375 C13.57327412 10.9889755 11.53011948 11.2215017 9 12 C8.67 9.69 8.34 7.38 8 5 C6.865625 4.731875 5.73125 4.46375 4.5625 4.1875 C3.386875 3.795625 2.21125 3.40375 1 3 C0.67 2.01 0.34 1.02 0 0 Z " fill="#D4A414" transform="translate(232,99)"/>
<path d="M0 0 C0 0.33 0 0.66 0 1 C-0.56509277 1.11593506 -1.13018555 1.23187012 -1.71240234 1.35131836 C-4.26720691 1.87715296 -6.8211036 2.40727295 -9.375 2.9375 C-10.26445312 3.11990234 -11.15390625 3.30230469 -12.0703125 3.49023438 C-12.92109375 3.66748047 -13.771875 3.84472656 -14.6484375 4.02734375 C-15.43395996 4.18968506 -16.21948242 4.35202637 -17.02880859 4.51928711 C-19.05960746 4.93706722 -19.05960746 4.93706722 -21 6 C-23.6723621 6.13415472 -26.32250488 6.04318541 -29 6 C-29 5.34 -29 4.68 -29 4 C-26.94921875 3.77213542 -24.8984375 3.54427083 -22.84765625 3.31640625 C-20.98859771 3.18113386 -20.98859771 3.18113386 -20 2 C-18.35892758 1.79160985 -16.71143707 1.63248275 -15.0625 1.5 C-9.72463592 1.06989872 -5.48409088 -0.08845308 0 0 Z " fill="#C79B1A" transform="translate(237,397)"/>
<path d="M0 0 C2.76276177 0.52268466 5.3260876 1.10869587 8 2 C8 1.67 8 1.34 8 1 C9.65 1 11.3 1 13 1 C13.66 2.98 14.32 4.96 15 7 C16.65 7 18.3 7 20 7 C18.24316406 8.09716797 18.24316406 8.09716797 16 9 C14.07714844 8.49267578 14.07714844 8.49267578 12.109375 7.4453125 C11.40039062 7.07792969 10.69140625 6.71054687 9.9609375 6.33203125 C9.23132813 5.93371094 8.50171875 5.53539062 7.75 5.125 C7.00492187 4.73441406 6.25984375 4.34382813 5.4921875 3.94140625 C3.65392311 2.97513907 1.82592089 1.98939434 0 1 C0 0.67 0 0.34 0 0 Z " fill="#CA9B14" transform="translate(120,386)"/>
<path d="M0 0 C1.23234375 0.33773438 2.4646875 0.67546875 3.734375 1.0234375 C12.78237787 3.47228026 21.69558542 5.75569705 31 7 C31 7.33 31 7.66 31 8 C22.57142857 9.28571429 22.57142857 9.28571429 18 8 C18 7.34 18 6.68 18 6 C16.0509375 5.8453125 16.0509375 5.8453125 14.0625 5.6875 C9.09839647 5.151692 4.65751666 3.75069775 0 2 C0 1.34 0 0.68 0 0 Z " fill="#CA9D20" transform="translate(147,371)"/>
<path d="M0 0 C1.72945653 0.14235457 3.45855654 0.28904382 5.1875 0.4375 C6.63189453 0.55931641 6.63189453 0.55931641 8.10546875 0.68359375 C10.78649602 0.97666151 13.3662986 1.42703754 16 2 C15.01 2.495 15.01 2.495 14 3 C14 3.66 14 4.32 14 5 C16.97 5.495 16.97 5.495 20 6 C19.67 6.66 19.34 7.32 19 8 C12.38757278 6.17778624 6.19479329 3.94776396 0 1 C0 0.67 0 0.34 0 0 Z " fill="#D2A011" transform="translate(124,233)"/>
<path d="M0 0 C7.04519274 0.52838946 12.08383396 4.28682105 17.3125 8.75 C19.84992466 11.15359962 19.84992466 11.15359962 23 12 C23.33 13.65 23.66 15.3 24 17 C23.05125 16.154375 22.1025 15.30875 21.125 14.4375 C14.65728742 8.91244998 8.01870886 3.96343588 0 1 C0 0.67 0 0.34 0 0 Z " fill="#BD971F" transform="translate(236,266)"/>
<path d="M0 0 C1.32 0.33 2.64 0.66 4 1 C4.18175781 1.68964844 4.36351563 2.37929688 4.55078125 3.08984375 C6.16834166 9.13703115 7.94180675 15.08816832 10 21 C9.34 21 8.68 21 8 21 C5 14.375 5 14.375 5 11 C4.34 11 3.68 11 3 11 C2.51171875 9.01432292 2.0234375 7.02864583 1.53515625 5.04296875 C1.08989295 3.34316798 0.55566015 1.66698046 0 0 Z " fill="#C59C13" transform="translate(98,315)"/>
<path d="M0 0 C2.31794536 3.86324227 2.28897463 6.02282239 3 11 C11.58 11 20.16 11 29 11 C29 11.33 29 11.66 29 12 C24.54178834 12.08674429 20.08379196 12.14030513 15.625 12.1875 C14.35398437 12.21263672 13.08296875 12.23777344 11.7734375 12.26367188 C10.56171875 12.27333984 9.35 12.28300781 8.1015625 12.29296875 C6.98088379 12.3086792 5.86020508 12.32438965 4.70556641 12.34057617 C3.81272949 12.22818604 2.91989258 12.1157959 2 12 C-0.13586678 8.79619983 -0.23132175 7.98060033 -0.125 4.3125 C-0.10695313 3.50425781 -0.08890625 2.69601563 -0.0703125 1.86328125 C-0.04710937 1.24839844 -0.02390625 0.63351563 0 0 Z " fill="#1E0200" transform="translate(258,164)"/>
<path d="M0 0 C-2.3125 2.5 -2.3125 2.5 -5 5 C-5.99 5 -6.98 5 -8 5 C-8 4.34 -8 3.68 -8 3 C-13.28 3 -18.56 3 -24 3 C-24 2.67 -24 2.34 -24 2 C-23.2265625 1.95101563 -22.453125 1.90203125 -21.65625 1.8515625 C-14.50109252 1.34507404 -14.50109252 1.34507404 -7.5 -0.125 C-4.12962934 -0.96759267 -3.13298876 -0.97562369 0 0 Z " fill="#261603" transform="translate(228,401)"/>
<path d="M0 0 C0.66 0.33 1.32 0.66 2 1 C1.67 2.65 1.34 4.3 1 6 C0.34 6 -0.32 6 -1 6 C-1 6.66 -1 7.32 -1 8 C-1.66 8 -2.32 8 -3 8 C-3 8.66 -3 9.32 -3 10 C-5.31 9.67 -7.62 9.34 -10 9 C-6.85281112 5.7317654 -3.50647501 2.8689341 0 0 Z " fill="#D9A30D" transform="translate(254,358)"/>
<path d="M0 0 C1.32 0 2.64 0 4 0 C4.99901796 2.72547618 5.99295354 5.4525093 6.9765625 8.18359375 C7.70743587 10.19489033 8.46872209 12.19524132 9.25 14.1875 C10.2416122 17.90604574 10.13249624 21.15760902 10 25 C9.67 25 9.34 25 9 25 C8.92523438 24.41734375 8.85046875 23.8346875 8.7734375 23.234375 C7.72087407 16.67133244 5.46037666 11.41835916 2.33984375 5.56640625 C1 3 1 3 0 0 Z " fill="#CFA51D" transform="translate(260,283)"/>
<path d="M0 0 C2.3828125 -0.29296875 2.3828125 -0.29296875 5.125 -0.1875 C6.03507813 -0.16042969 6.94515625 -0.13335937 7.8828125 -0.10546875 C8.58148438 -0.07066406 9.28015625 -0.03585938 10 0 C7.06698229 2.27138348 4.04931207 4.26869942 0.875 6.1875 C0.00617188 6.71730469 -0.86265625 7.24710938 -1.7578125 7.79296875 C-4 9 -4 9 -6 9 C-6 8.34 -6 7.68 -6 7 C-5.34 7 -4.68 7 -4 7 C-3.71125 6.401875 -3.4225 5.80375 -3.125 5.1875 C-2 3 -2 3 0 0 Z " fill="#D3A11A" transform="translate(137,121)"/>
<path d="M0 0 C2 3 2 3 2 6 C3.32 5.67 4.64 5.34 6 5 C6 6.32 6 7.64 6 9 C6.66 9.33 7.32 9.66 8 10 C8.625 12.5625 8.625 12.5625 9 15 C3.7045931 10.97121781 0.20835538 6.82530885 -3 1 C-2.01 0.67 -1.02 0.34 0 0 Z " fill="#D5A317" transform="translate(93,357)"/>
<path d="M0 0 C0.7425 0.433125 0.7425 0.433125 1.5 0.875 C4.91752035 2.41288416 8.3506202 3.14847805 12 4 C12 5.32 12 6.64 12 8 C12.99 8.33 13.98 8.66 15 9 C14.34 9.66 13.68 10.32 13 11 C8.34148756 8.04582138 3.98497101 4.8317029 0 1 C0 0.67 0 0.34 0 0 Z " fill="#CB9D1C" transform="translate(104,374)"/>
<path d="M0 0 C8.91 1.98 8.91 1.98 18 4 C18 4.33 18 4.66 18 5 C12.72 5 7.44 5 2 5 C1.34 3.35 0.68 1.7 0 0 Z " fill="#221500" transform="translate(142,241)"/>
<path d="M0 0 C4.6889493 0.55619669 8.19924267 1.88182673 12.375 4.0625 C13.43460938 4.61035156 14.49421875 5.15820312 15.5859375 5.72265625 C16.38257813 6.14417969 17.17921875 6.56570312 18 7 C18 7.66 18 8.32 18 9 C19.32 9.33 20.64 9.66 22 10 C21.67 10.99 21.34 11.98 21 13 C20.10861328 12.32904297 20.10861328 12.32904297 19.19921875 11.64453125 C13.09770258 7.19412521 6.97589584 3.87788859 0 1 C0 0.67 0 0.34 0 0 Z " fill="#C2991E" transform="translate(216,119)"/>
<path d="M0 0 C0.33 0.99 0.66 1.98 1 3 C-4.22219075 6.5605846 -8.89350678 9.27425192 -15 11 C-15.66 10.67 -16.32 10.34 -17 10 C-16.02417969 9.44570313 -15.04835937 8.89140625 -14.04296875 8.3203125 C-12.75777981 7.58859909 -11.47262536 6.85682508 -10.1875 6.125 C-9.54490234 5.76019531 -8.90230469 5.39539063 -8.24023438 5.01953125 C-5.43231202 3.41916099 -2.69035702 1.79357134 0 0 Z " fill="#2A1301" transform="translate(265,383)"/>
<path d="M0 0 C4.84738091 -0.08357553 9.21834883 0.11039048 14 1 C14.99 1 15.98 1 17 1 C17 1.66 17 2.32 17 3 C17.99 3.33 18.98 3.66 20 4 C15.60155678 5.37344385 12.07495445 4.24307502 7.75 3.0625 C7.00492188 2.86720703 6.25984375 2.67191406 5.4921875 2.47070312 C3.65920614 1.98895802 1.82928182 1.49560775 0 1 C0 0.67 0 0.34 0 0 Z " fill="#CA9A12" transform="translate(160,245)"/>
<path d="M0 0 C2.39489543 0.74324341 3.70777616 1.47057354 4.93359375 3.69140625 C5.67219923 5.44073501 6.34049685 7.21934149 7 9 C7.33 9 7.66 9 8 9 C8 12.63 8 16.26 8 20 C7.67 20 7.34 20 7 20 C6.74605469 19.14277344 6.49210937 18.28554687 6.23046875 17.40234375 C4.43618716 11.44156558 2.62671943 5.64744678 0 0 Z " fill="#281201" transform="translate(276,139)"/>
<path d="M0 0 C4.98233281 4.83998044 9.73039299 9.80495515 13 16 C13 16.66 13 17.32 13 18 C12.34 18 11.68 18 11 18 C10.34 16.02 9.68 14.04 9 12 C8.01 12 7.02 12 6 12 C5.566875 11.0925 5.13375 10.185 4.6875 9.25 C3.15019164 6.07225128 3.15019164 6.07225128 1.3125 3.75 C0 2 0 2 0 0 Z " fill="#C89B20" transform="translate(262,120)"/>
<path d="M0 0 C1.98 0 3.96 0 6 0 C2.79239749 3.80635497 -0.40746109 7.54563567 -4 11 C-4.66 10.67 -5.32 10.34 -6 10 C-5.38125 9.278125 -4.7625 8.55625 -4.125 7.8125 C-2.16333647 5.21618062 -1.04684 3.05328334 0 0 Z " fill="#1F1002" transform="translate(288,355)"/>
<path d="M0 0 C1.38121182 4.14363547 0.02904675 5.73489421 -1.8125 9.625 C-2.35519531 10.79289062 -2.89789063 11.96078125 -3.45703125 13.1640625 C-5 16 -5 16 -7 17 C-6.34710744 10.07933884 -6.34710744 10.07933884 -3 7 C-2.28591666 5.01643517 -1.61382258 3.01684563 -1 1 C-0.67 0.67 -0.34 0.34 0 0 Z " fill="#CCA11B" transform="translate(291,345)"/>
<path d="M0 0 C2.31 0.66 4.62 1.32 7 2 C7.33 3.32 7.66 4.64 8 6 C8.78375 6.0825 9.5675 6.165 10.375 6.25 C13 7 13 7 14.3125 9.0625 C14.539375 9.701875 14.76625 10.34125 15 11 C10.92584833 9.59790456 8.01720177 7.65552322 4.6875 4.9375 C3.80449219 4.22464844 2.92148438 3.51179688 2.01171875 2.77734375 C1.34785156 2.19082031 0.68398437 1.60429687 0 1 C0 0.67 0 0.34 0 0 Z " fill="#2D1800" transform="translate(121,354)"/>
<path d="M0 0 C1.86718689 2.80078034 3.54204238 5.62725376 5.1875 8.5625 C5.73792969 9.53316406 6.28835937 10.50382812 6.85546875 11.50390625 C7.23316406 12.32761719 7.61085938 13.15132813 8 14 C7.67 14.66 7.34 15.32 7 16 C6.34 16 5.68 16 5 16 C5 14.68 5 13.36 5 12 C4.34 12 3.68 12 3 12 C0.97649676 8.96474514 0.67875982 7.80573798 0.375 4.3125 C0.30023438 3.50425781 0.22546875 2.69601562 0.1484375 1.86328125 C0.09945312 1.24839844 0.05046875 0.63351562 0 0 Z " fill="#351D01" transform="translate(81,342)"/>
<path d="M0 0 C0.33 0.66 0.66 1.32 1 2 C0.21625 2.763125 -0.5675 3.52625 -1.375 4.3125 C-4.07257717 6.90891805 -4.07257717 6.90891805 -6 10 C-5.01 11.485 -5.01 11.485 -4 13 C-6.31 12.34 -8.62 11.68 -11 11 C-7.33333333 7.33333333 -3.66666667 3.66666667 0 0 Z " fill="#CBCBCB" transform="translate(285,385)"/>
<path d="M0 0 C0.43570313 0.37511719 0.87140625 0.75023437 1.3203125 1.13671875 C5.18607599 4.45859777 9.07657648 7.74642927 13 11 C10 12 10 12 8.015625 11.3125 C5.68965379 9.79791409 4.38028891 8.23958881 2.75 6 C2.22921875 5.29875 1.7084375 4.5975 1.171875 3.875 C0 2 0 2 0 0 Z " fill="#C49A1A" transform="translate(118,351)"/>
<path d="M0 0 C2.80045623 3.14591933 3.35261589 5.067064 3.1875 9.25 C3.16042969 10.14203125 3.13335937 11.0340625 3.10546875 11.953125 C3.07066406 12.62859375 3.03585937 13.3040625 3 14 C2.34 14 1.68 14 1 14 C1 12.68 1 11.36 1 10 C0.34 10 -0.32 10 -1 10 C-1 8.68 -1 7.36 -1 6 C-0.34 6 0.32 6 1 6 C0.67 4.02 0.34 2.04 0 0 Z " fill="#DCA20C" transform="translate(275,138)"/>
<path d="M0 0 C6.03748977 0.80499864 12.01270113 1.88482498 18 3 C18 3.33 18 3.66 18 4 C12.22240116 4.12036664 6.72040011 3.8320582 1 3 C0.67 2.01 0.34 1.02 0 0 Z " fill="#2D1600" transform="translate(182,251)"/>
<path d="M0 0 C6.35219042 0.54881057 12.67873638 1.16511613 19 2 C19 2.33 19 2.66 19 3 C16.58265458 3.08117951 14.16805051 3.14056926 11.75 3.1875 C11.06808594 3.21263672 10.38617188 3.23777344 9.68359375 3.26367188 C6.40800711 3.31137459 4.34651444 3.21085076 1.515625 1.48828125 C1.01546875 0.99714844 0.5153125 0.50601562 0 0 Z " fill="#231100" transform="translate(157,401)"/>
<path d="M0 0 C6.32278971 0.32626495 11.55464391 0.61504892 17 4 C13.02623171 5.56393356 10.18622097 4.36145292 6.25 3.0625 C4.49429688 2.49208984 4.49429688 2.49208984 2.703125 1.91015625 C1.81109375 1.60980469 0.9190625 1.30945313 0 1 C0 0.67 0 0.34 0 0 Z " fill="#BE9617" transform="translate(139,395)"/>
<path d="M0 0 C0.66 0 1.32 0 2 0 C3.905247 5.10334017 5.42589023 9.46342706 5 15 C4.34 15 3.68 15 3 15 C2.01 10.05 1.02 5.1 0 0 Z " fill="#180402" transform="translate(294,289)"/>
<path d="M0 0 C2.0839403 0.11443603 4.16716493 0.24195547 6.25 0.375 C7.41015625 0.44460937 8.5703125 0.51421875 9.765625 0.5859375 C12.70694334 0.96248308 14.49949011 1.4774123 17 3 C10.91891127 4.80789124 5.83137661 2.83657235 0 1 C0 0.67 0 0.34 0 0 Z " fill="#3C2402" transform="translate(178,223)"/>
<path d="M0 0 C-1.1196986 1.00593243 -2.2459412 2.0045849 -3.375 3 C-4.00148438 3.556875 -4.62796875 4.11375 -5.2734375 4.6875 C-7 6 -7 6 -9 6 C-9 5.01 -9 4.02 -9 3 C-8.34 3 -7.68 3 -7 3 C-6.67 2.01 -6.34 1.02 -6 0 C-3 -1 -3 -1 0 0 Z " fill="#CDA217" transform="translate(272,378)"/>
<path d="M0 0 C2.10495964 0.06005591 4.20911435 0.14885359 6.3125 0.25 C7.48425781 0.29640625 8.65601563 0.3428125 9.86328125 0.390625 C13 1 13 1 16 5 C10.72 3.68 5.44 2.36 0 1 C0 0.67 0 0.34 0 0 Z " fill="#B68F15" transform="translate(210,257)"/>
<path d="M0 0 C0.33 0 0.66 0 1 0 C0.88610125 1.79240663 0.75852313 3.58394835 0.625 5.375 C0.52058594 6.87160156 0.52058594 6.87160156 0.4140625 8.3984375 C0 11 0 11 -2 13 C-3.46845421 7.52667068 -2.44038726 4.88077452 0 0 Z " fill="#251200" transform="translate(117,147)"/>
<path d="M0 0 C3.72433382 1.2125738 7.37802806 2.50859979 11 4 C10.67 4.66 10.34 5.32 10 6 C5.545 5.01 5.545 5.01 1 4 C0.67 2.68 0.34 1.36 0 0 Z " fill="#1C0C02" transform="translate(122,233)"/>
<path d="M0 0 C5.23175837 -0.38281159 8.37802694 0.78145293 13 3 C13 3.33 13 3.66 13 4 C11.58297487 3.85769192 10.1663904 3.71099254 8.75 3.5625 C7.56664062 3.44068359 7.56664062 3.44068359 6.359375 3.31640625 C4.17635361 3.02365007 2.1226818 2.57935581 0 2 C0 1.34 0 0.68 0 0 Z " fill="#C2971A" transform="translate(152,217)"/>
<path d="M0 0 C1 2 1 2 0.8125 4 C-0.25260795 6.62180417 -1.47377216 6.89477532 -4 8 C-4.33 8.66 -4.66 9.32 -5 10 C-5.66 10 -6.32 10 -7 10 C-5.6062718 5.56541027 -3.39417765 3.12621626 0 0 Z " fill="#201001" transform="translate(127,134)"/>
<path d="M0 0 C2.97 0.495 2.97 0.495 6 1 C5.04578192 2.14926266 4.08647955 3.29430541 3.125 4.4375 C2.59132813 5.07558594 2.05765625 5.71367187 1.5078125 6.37109375 C0 8 0 8 -2 9 C-2 8.01 -2 7.02 -2 6 C-1.34 6 -0.68 6 0 6 C0 4.02 0 2.04 0 0 Z " fill="#CBA117" transform="translate(125,129)"/>
<path d="M0 0 C0.74636719 0.0825 1.49273437 0.165 2.26171875 0.25 C1.53984375 0.806875 0.81796875 1.36375 0.07421875 1.9375 C-2.71285424 4.22909334 -5.22469653 6.66459857 -7.73828125 9.25 C-8.39828125 8.92 -9.05828125 8.59 -9.73828125 8.25 C-8.69428379 6.90213008 -7.62726059 5.57207271 -6.55078125 4.25 C-5.95910156 3.5075 -5.36742187 2.765 -4.7578125 2 C-2.73828125 0.25 -2.73828125 0.25 0 0 Z " fill="#DBDADB" transform="translate(295.73828125,375.75)"/>
<path d="M0 0 C4.81449408 0.48144941 7.60171741 0.8008587 12 3 C8.04 3 4.08 3 0 3 C0 2.01 0 1.02 0 0 Z " fill="#220E00" transform="translate(168,248)"/>
<path d="M0 0 C1.93833996 0.08715017 3.8757429 0.19532964 5.8125 0.3125 C7.43091797 0.39951172 7.43091797 0.39951172 9.08203125 0.48828125 C12.17497517 1.03068507 13.13022903 1.55289624 15 4 C9.86496656 3.35812082 5.0056546 2.31727753 0 1 C0 0.67 0 0.34 0 0 Z " fill="#371D00" transform="translate(162,219)"/>
<path d="M0 0 C0.33 0 0.66 0 1 0 C1.13277344 0.74765625 1.26554687 1.4953125 1.40234375 2.265625 C1.57894531 3.25046875 1.75554687 4.2353125 1.9375 5.25 C2.19853516 6.71179688 2.19853516 6.71179688 2.46484375 8.203125 C2.90379729 10.49721795 3.40348592 12.74291971 4 15 C3.34 15 2.68 15 2 15 C-0.35119399 11.47320901 -0.21443452 9.97120515 -0.125 5.8125 C-0.10695313 4.72582031 -0.08890625 3.63914063 -0.0703125 2.51953125 C-0.04710938 1.68808594 -0.02390625 0.85664063 0 0 Z " fill="#C89E19" transform="translate(112,173)"/>
<path d="M0 0 C3.72114571 2.31537955 6.61229661 4.28579473 9 8 C7.35 7.67 5.7 7.34 4 7 C4 6.34 4 5.68 4 5 C3.34 5 2.68 5 2 5 C1.34 3.35 0.68 1.7 0 0 Z " fill="#D1A01B" transform="translate(251,110)"/>
<path d="M0 0 C0.33 0 0.66 0 1 0 C1.05437607 1.58294782 1.09296271 3.16644256 1.125 4.75 C1.14820313 5.63171875 1.17140625 6.5134375 1.1953125 7.421875 C0.99139502 10.1135858 0.36551721 11.69904974 -1 14 C-2.51708428 4.58997722 -2.51708428 4.58997722 0 0 Z " fill="#261000" transform="translate(268,320)"/>
<path d="M0 0 C7.50769231 0.61538462 7.50769231 0.61538462 10 2.5625 C10.33 3.036875 10.66 3.51125 11 4 C10.01 4.495 10.01 4.495 9 5 C6.8359375 4.22265625 6.8359375 4.22265625 4.375 3.0625 C3.55773437 2.68222656 2.74046875 2.30195313 1.8984375 1.91015625 C1.27195312 1.60980469 0.64546875 1.30945313 0 1 C0 0.67 0 0.34 0 0 Z " fill="#BE9619" transform="translate(124,233)"/>
<path d="M0 0 C3.3 1.65 6.6 3.3 10 5 C6 6 6 6 3.3125 4.75 C1 3 1 3 0 0 Z " fill="#271400" transform="translate(112,227)"/>
<path d="M0 0 C4.95 1.98 4.95 1.98 10 4 C8.02 4.99 8.02 4.99 6 6 C2.75 4.625 2.75 4.625 0 3 C0 2.01 0 1.02 0 0 Z " fill="#D2A117" transform="translate(136,366)"/>
<path d="M0 0 C3.53372712 1.96318174 6.24479785 4.04070881 9 7 C4.25 6.125 4.25 6.125 2 5 C2 4.01 2 3.02 2 2 C1.34 2 0.68 2 0 2 C0 1.34 0 0.68 0 0 Z " fill="#271400" transform="translate(245,271)"/>
<path d="M0 0 C1.27875 0.103125 2.5575 0.20625 3.875 0.3125 C4.95394531 0.39951172 4.95394531 0.39951172 6.0546875 0.48828125 C8 1 8 1 10 4 C5.66905042 4 3.72965139 3.03435531 0 1 C0 0.67 0 0.34 0 0 Z " fill="#1F1102" transform="translate(255,245)"/>
<path d="M0 0 C1.32 0.33 2.64 0.66 4 1 C4 1.99 4 2.98 4 4 C4.99 4.33 5.98 4.66 7 5 C6.67 5.99 6.34 6.98 6 8 C4.99403703 7.0479279 3.99538437 6.08812654 3 5.125 C2.443125 4.59132812 1.88625 4.05765625 1.3125 3.5078125 C0 2 0 2 0 0 Z " fill="#271500" transform="translate(121,195)"/>
<path d="M0 0 C1.60852372 2.68087287 2.07056307 4.52040267 2.5 7.6875 C2.665 8.780625 2.83 9.87375 3 11 C3.66 11.33 4.32 11.66 5 12 C3.68 11.67 2.36 11.34 1 11 C-0.17571451 7.32589215 -0.07366746 3.83070817 0 0 Z " fill="#301A00" transform="translate(258,164)"/>
<path d="M0 0 C2 2 2 2 2 4 C-0.64 3.67 -3.28 3.34 -6 3 C-6 2.34 -6 1.68 -6 1 C-3.125 0.375 -3.125 0.375 0 0 Z " fill="#D5A117" transform="translate(214,115)"/>
<path d="M0 0 C2.4375 1.3125 2.4375 1.3125 5.4375 4.3125 C-0.5025 2.8275 -0.5025 2.8275 -6.5625 1.3125 C-2.5625 -0.6875 -2.5625 -0.6875 0 0 Z " fill="#351901" transform="translate(224.5625,93.6875)"/>
<path d="M0 0 C3.3 1.65 6.6 3.3 10 5 C10 5.33 10 5.66 10 6 C8.35 6 6.7 6 5 6 C4.67 5.01 4.34 4.02 4 3 C1.98491642 2.26676204 1.98491642 2.26676204 0 2 C0 1.34 0 0.68 0 0 Z " fill="#231000" transform="translate(112,382)"/>
<path d="M0 0 C0.33 0 0.66 0 1 0 C1 1.98 1 3.96 1 6 C-0.98 6 -2.96 6 -5 6 C-3.35830472 3.97945196 -1.69088222 1.97956942 0 0 Z " fill="#230E00" transform="translate(275,374)"/>
<path d="M0 0 C0.33 1.32 0.66 2.64 1 4 C-0.65 4.66 -2.3 5.32 -4 6 C-4 6.66 -4 7.32 -4 8 C-4.66 7.67 -5.32 7.34 -6 7 C-4.02 4.69 -2.04 2.38 0 0 Z " fill="#C89D21" transform="translate(261,350)"/>
<path d="M0 0 C2.64752004 2.57784846 4.94432065 4.91648098 7 8 C5.68 8 4.36 8 3 8 C0 2.25 0 2.25 0 0 Z " fill="#2F1900" transform="translate(241,135)"/>
<path d="M0 0 C-2.8125 2.0625 -2.8125 2.0625 -6 4 C-6.99 3.67 -7.98 3.34 -9 3 C-8.34 2.67 -7.68 2.34 -7 2 C-7 1.34 -7 0.68 -7 0 C-3.98968256 -0.93423645 -3.13349732 -1.04449911 0 0 Z " fill="#C99919" transform="translate(262,386)"/>
<path d="M0 0 C0.598125 0.309375 1.19625 0.61875 1.8125 0.9375 C4.08956772 2.10209704 4.08956772 2.10209704 7 3 C7.33 4.65 7.66 6.3 8 8 C6.85073734 7.04578192 5.70569459 6.08647955 4.5625 5.125 C3.92441406 4.59132813 3.28632813 4.05765625 2.62890625 3.5078125 C1 2 1 2 0 0 Z " fill="#CBA31E" transform="translate(252,275)"/>
<path d="M0 0 C1.98 0.99 3.96 1.98 6 3 C5.01 3.99 4.02 4.98 3 6 C2.01 5.34 1.02 4.68 0 4 C0 2.68 0 1.36 0 0 Z " fill="#03020F" transform="translate(104,226)"/>
<path d="M0 0 C2.4375 0.625 2.4375 0.625 5 2 C5.8125 5.125 5.8125 5.125 6 8 C1.125 3.375 1.125 3.375 0 0 Z " fill="#CB9E1B" transform="translate(244,137)"/>
<path d="M0 0 C1.43836751 0.11458693 2.87570966 0.24209116 4.3125 0.375 C5.51326172 0.47941406 5.51326172 0.47941406 6.73828125 0.5859375 C9 1 9 1 12 3 C8.69564916 4.12377697 6.9493138 3.89554742 3.75 2.5625 C3.04359375 2.27503906 2.3371875 1.98757813 1.609375 1.69140625 C1.07828125 1.46324219 0.5471875 1.23507812 0 1 C0 0.67 0 0.34 0 0 Z " fill="#B98E16" transform="translate(226,262)"/>
<path d="M0 0 C0 0.66 0 1.32 0 2 C-2.97 2.66 -5.94 3.32 -9 4 C-6.94469992 -0.11060016 -4.15744224 -0.22472661 0 0 Z " fill="#ECA60D" transform="translate(144,230)"/>
<path d="M0 0 C0.33 0.99 0.66 1.98 1 3 C-0.98 4.32 -2.96 5.64 -5 7 C-3.75023244 3.34683329 -3.32901247 2.21934164 0 0 Z " fill="#1E0E00" transform="translate(265,383)"/>
<path d="M0 0 C0.66 1.32 1.32 2.64 2 4 C0.68 5.32 -0.64 6.64 -2 8 C-2.125 5.125 -2.125 5.125 -2 2 C-1.34 1.34 -0.68 0.68 0 0 Z " fill="#0A0A0A" transform="translate(281,383)"/>
<path d="M0 0 C4.875 2.75 4.875 2.75 6 5 C3.69 4.67 1.38 4.34 -1 4 C-0.67 2.68 -0.34 1.36 0 0 Z " fill="#1F1200" transform="translate(106,377)"/>
<path d="M0 0 C4.95 0.99 4.95 0.99 10 2 C9.01 2.66 8.02 3.32 7 4 C3.3125 3.125 3.3125 3.125 0 2 C0 1.34 0 0.68 0 0 Z " fill="#200800" transform="translate(208,257)"/>
<path d="M0 0 C0.99 0.33 1.98 0.66 3 1 C1.68 3.31 0.36 5.62 -1 8 C-1.66 8 -2.32 8 -3 8 C-1.125 2.25 -1.125 2.25 0 0 Z " fill="#CD9920" transform="translate(118,141)"/>
<path d="M0 0 C0 0.66 0 1.32 0 2 C-0.66 2 -1.32 2 -2 2 C-2.33 2.99 -2.66 3.98 -3 5 C-3.99 5.33 -4.98 5.66 -6 6 C-5.6875 4.125 -5.6875 4.125 -5 2 C-2 0 -2 0 0 0 Z " fill="#CEA117" transform="translate(122,107)"/>
<path d="M0 0 C2.97 0.495 2.97 0.495 6 1 C6.33 2.32 6.66 3.64 7 5 C4.11562221 3.70700306 2.12780579 2.34058637 0 0 Z " fill="#2E1802" transform="translate(248,107)"/>
</svg>
